HIERARCHY
ROOT hip
{
	OFFSET 0.000000 0.000000 0.000000 
	CHANNELS 6 Xposition Yposition Zposition Xrotation Zrotation Yrotation
	JOINT abdomen
	{
		OFFSET 0.000000 3.402643 0.000000 
		CHANNELS 3 Xrotation Zrotation Yrotation
		JOINT chest
		{
			OFFSET 0.000000 8.438565 -0.680529 
			CHANNELS 3 Xrotation Zrotation Yrotation
			JOINT neck
			{
				OFFSET 0.000000 10.207942 -0.272212 
				CHANNELS 3 Xrotation Zrotation Yrotation
				JOINT head
				{
					OFFSET 0.000000 3.130431 0.000000 
					CHANNELS 3 Xrotation Zrotation Yrotation
					End Site
					{
						OFFSET 0.000000 3.130435 0.000000 
					}
				}
			}
			JOINT lCollar
			{
				OFFSET 3.470700 6.669187 -0.816635 
				CHANNELS 3 Yrotation Zrotation Xrotation
				JOINT lShldr
				{
					OFFSET 3.198488 0.000000 0.000000 
					CHANNELS 3 Zrotation Yrotation Xrotation
					JOINT lForeArm
					{
						OFFSET 10.139888 0.000000 0.000000 
						CHANNELS 3 Yrotation Zrotation Xrotation
						JOINT lHand
						{
							OFFSET 8.370511 0.000000 0.000000 
							CHANNELS 3 Zrotation Yrotation Xrotation
							End Site
							{
								OFFSET 4.083176 0.000000 0.000000 
							}
						}
					}
				}
			}
			JOINT rCollar
			{
				OFFSET -3.470700 6.669187 -0.816635 
				CHANNELS 3 Yrotation Zrotation Xrotation
				JOINT rShldr
				{
					OFFSET -3.198488 0.000000 0.000000 
					CHANNELS 3 Zrotation Yrotation Xrotation
					JOINT rForeArm
					{
						OFFSET -10.139888 0.000000 0.000000 
						CHANNELS 3 Yrotation Zrotation Xrotation
						JOINT rHand
						{
							OFFSET -8.370511 0.000000 0.000000 
							CHANNELS 3 Zrotation Yrotation Xrotation
							End Site
							{
								OFFSET -4.083176 0.000000 0.000000 
							}
						}
					}
				}
			}
		}
	}
	JOINT lThigh
	{
		OFFSET 5.308129 -1.633274 1.361059 
		CHANNELS 3 Xrotation Zrotation Yrotation
		JOINT lShin
		{
			OFFSET -2.041588 -20.007561 0.000000 
			CHANNELS 3 Xrotation Zrotation Yrotation
			JOINT lFoot
			{
				OFFSET 0.000000 -19.190928 -1.224953 
				CHANNELS 3 Xrotation Yrotation Zrotation
				End Site
				{
					OFFSET 0.000000 -2.449906 4.627600 
				}
			}
		}
	}
	JOINT rThigh
	{
		OFFSET -5.308129 -1.633274 1.361059 
		CHANNELS 3 Xrotation Zrotation Yrotation
		JOINT rShin
		{
			OFFSET 2.041588 -20.007561 0.000000 
			CHANNELS 3 Xrotation Zrotation Yrotation
			JOINT rFoot
			{
				OFFSET 0.000000 -19.190928 -1.224953 
				CHANNELS 3 Xrotation Yrotation Zrotation
				End Site
				{
					OFFSET 0.000000 -2.449906 4.627600 
				}
			}
		}
	}
}
MOTION
Frames: 13
Frame Time: 0.041667
0.000000 53.498543 0.305648 -2.372530 0.628675 2.030900 0.000000 0.000000 0.000000 0.000000 0.000000 0.000000 0.000000 0.000000 -3.000000 7.120450 1.366530 2.908880 14.689500 -0.245973 1.906740 -31.903538 -43.303474 21.271149 -23.177441 6.658603 3.357825 5.592880 -0.201321 0.174503 -11.342000 6.551700 -1.955400 33.987606 30.580910 15.180823 31.138083 -10.737309 -2.776463 -5.797487 13.400004 3.564926 -23.332832 2.240350 -0.876872 46.737862 0.270340 -4.833960 24.152800 13.364600 -0.895056 -5.992420 -0.058962 -2.743958 36.464821 -2.314656 0.936188 18.124201 2.606590 0.575827 
0.000000 53.498543 0.305648 -2.372530 0.628675 2.030900 0.000000 0.000000 0.000000 0.000000 0.000000 0.000000 0.000000 0.000000 -3.000000 7.120450 1.366530 2.908880 14.689500 -0.245973 1.906740 -31.824749 -43.305950 21.212049 -23.244717 6.578634 3.366982 5.568547 -0.203144 0.174423 -11.342000 6.551700 -1.955400 33.915733 30.584875 15.144069 31.213118 -10.718035 -2.761227 -5.797487 13.400004 3.564926 -23.352558 2.285557 -0.873965 46.826008 0.237315 -4.837072 24.152800 13.364600 -0.895056 -5.955366 -0.135529 -2.746960 36.437653 -2.315474 0.935614 18.124201 2.606590 0.575827 
0.000000 53.498543 0.305648 -2.372530 0.628675 2.030900 0.000000 0.000000 0.000000 0.000000 0.000000 0.000000 0.000000 0.000000 -3.000000 7.120450 1.366530 2.908880 14.689500 -0.245973 1.906740 -31.745960 -43.308430 21.152948 -23.311993 6.498665 3.376141 5.544213 -0.204966 0.174344 -11.342000 6.551700 -1.955400 33.843864 30.588842 15.107314 31.288151 -10.698761 -2.745992 -5.797487 13.400004 3.564926 -23.372286 2.330765 -0.871058 46.914150 0.204289 -4.840185 24.152800 13.364600 -0.895056 -5.918311 -0.212095 -2.749963 36.410488 -2.316292 0.935041 18.124201 2.606590 0.575827 
0.000000 53.498543 0.305648 -2.372530 0.628675 2.030900 0.000000 0.000000 0.000000 0.000000 0.000000 0.000000 0.000000 0.000000 -3.000000 7.120450 1.366530 2.908880 14.689500 -0.245973 1.906740 -31.667173 -43.310905 21.093849 -23.379269 6.418696 3.385298 5.519880 -0.206789 0.174264 -11.342000 6.551700 -1.955400 33.771992 30.592808 15.070559 31.363186 -10.679486 -2.730757 -5.797487 13.400004 3.564926 -23.392014 2.375972 -0.868151 47.002293 0.171264 -4.843297 24.152800 13.364600 -0.895056 -5.881256 -0.288661 -2.752966 36.383320 -2.317109 0.934467 18.124201 2.606590 0.575827 
0.000000 53.498543 0.305648 -2.372530 0.628675 2.030900 0.000000 0.000000 0.000000 0.000000 0.000000 0.000000 0.000000 0.000000 -3.000000 7.120450 1.366530 2.908880 14.689500 -0.245973 1.906740 -31.588385 -43.313385 21.034748 -23.446545 6.338727 3.394456 5.495547 -0.208612 0.174185 -11.342000 6.551700 -1.955400 33.700123 30.596775 15.033804 31.438221 -10.660213 -2.715521 -5.797487 13.400004 3.564926 -23.411741 2.421180 -0.865244 47.090435 0.138238 -4.846409 24.152800 13.364600 -0.895056 -5.844202 -0.365227 -2.755969 36.356155 -2.317927 0.933894 18.124201 2.606590 0.575827 
0.000000 53.498543 0.305648 -2.372530 0.628675 2.030900 0.000000 0.000000 0.000000 0.000000 0.000000 0.000000 0.000000 0.000000 -3.000000 7.120450 1.366530 2.908880 14.689500 -0.245973 1.906740 -31.509598 -43.315861 20.975649 -23.513821 6.258759 3.403614 5.471214 -0.210434 0.174105 -11.342000 6.551700 -1.955400 33.628250 30.600742 14.997049 31.513256 -10.640938 -2.700286 -5.797487 13.400004 3.564926 -23.431469 2.466387 -0.862338 47.178577 0.105213 -4.849522 24.152800 13.364600 -0.895056 -5.807147 -0.441794 -2.758971 36.328987 -2.318745 0.933320 18.124201 2.606590 0.575827 
0.000000 53.498543 0.305648 -2.372530 0.628675 2.030900 0.000000 0.000000 0.000000 0.000000 0.000000 0.000000 0.000000 0.000000 -3.000000 7.120450 1.366530 2.908880 14.689500 -0.245973 1.906740 -31.430809 -43.318336 20.916548 -23.581097 6.178790 3.412772 5.446881 -0.212257 0.174026 -11.342000 6.551700 -1.955400 33.556381 30.604708 14.960295 31.588289 -10.621664 -2.685051 -5.797487 13.400004 3.564926 -23.451195 2.511595 -0.859431 47.266720 0.072187 -4.852634 24.152800 13.364600 -0.895056 -5.770092 -0.518360 -2.761974 36.301823 -2.319563 0.932747 18.124201 2.606590 0.575827 
0.000000 53.498543 0.305648 -2.372530 0.628675 2.030900 0.000000 0.000000 0.000000 0.000000 0.000000 0.000000 0.000000 0.000000 -3.000000 7.120450 1.366530 2.908880 14.689500 -0.245973 1.906740 -31.381535 -43.334705 20.877895 -23.650793 6.095910 3.422271 5.420000 -0.214270 0.173938 -11.342000 6.551700 -1.955400 33.521297 30.608316 14.942415 31.665920 -10.601769 -2.669286 -5.797487 13.400004 3.564926 -23.465048 2.550951 -0.856947 47.315006 0.038025 -4.855281 24.152800 13.364600 -0.895056 -5.735562 -0.579746 -2.764411 36.273926 -2.320510 0.932161 18.124201 2.606590 0.575827 
0.000000 53.498543 0.305648 -2.372530 0.628675 2.030900 0.000000 0.000000 0.000000 0.000000 0.000000 0.000000 0.000000 0.000000 -3.000000 7.120450 1.366530 2.908880 14.689500 -0.245973 1.906740 -31.357557 -43.362984 20.856768 -23.722569 6.010534 3.432062 5.390936 -0.216447 0.173843 -11.342000 6.551700 -1.955400 33.517746 30.611618 14.940714 31.745773 -10.581344 -2.653069 -5.797487 13.400004 3.564926 -23.473864 2.585290 -0.854827 47.329128 0.002889 -4.857531 24.152800 13.364600 -0.895056 -5.703197 -0.628121 -2.766362 36.245399 -2.321568 0.931566 18.124201 2.606590 0.575827 
0.000000 53.498543 0.305648 -2.372530 0.628675 2.030900 0.000000 0.000000 0.000000 0.000000 0.000000 0.000000 0.000000 0.000000 -3.000000 7.120450 1.366530 2.908880 14.689500 -0.245973 1.906740 -31.333578 -43.391262 20.835640 -23.794342 5.925159 3.441853 5.361872 -0.218624 0.173748 -11.342000 6.551700 -1.955400 33.514191 30.614922 14.939013 31.825628 -10.560918 -2.636851 -5.797487 13.400004 3.564926 -23.482679 2.619629 -0.852707 47.343254 -0.032247 -4.859781 24.152800 13.364600 -0.895056 -5.670831 -0.676496 -2.768314 36.216877 -2.322626 0.930970 18.124201 2.606590 0.575827 
0.000000 53.498543 0.305648 -2.372530 0.628675 2.030900 0.000000 0.000000 0.000000 0.000000 0.000000 0.000000 0.000000 0.000000 -3.000000 7.120450 1.366530 2.908880 14.689500 -0.245973 1.906740 -31.309601 -43.419540 20.814514 -23.866116 5.839783 3.451644 5.332808 -0.220801 0.173652 -11.342000 6.551700 -1.955400 33.510639 30.618223 14.937312 31.905483 -10.540492 -2.620633 -5.797487 13.400004 3.564926 -23.491495 2.653969 -0.850587 47.357380 -0.067384 -4.862031 24.152800 13.364600 -0.895056 -5.638465 -0.724871 -2.770266 36.188351 -2.323684 0.930375 18.124201 2.606590 0.575827 
0.000000 53.498543 0.305648 -2.372530 0.628675 2.030900 0.000000 0.000000 0.000000 0.000000 0.000000 0.000000 0.000000 0.000000 -3.000000 7.120450 1.366530 2.908880 14.689500 -0.245973 1.906740 -31.285624 -43.447815 20.793386 -23.937889 5.754407 3.461436 5.303743 -0.222978 0.173557 -11.342000 6.551700 -1.955400 33.507088 30.621525 14.935611 31.985338 -10.520066 -2.604416 -5.797487 13.400004 3.564926 -23.500311 2.688308 -0.848467 47.371502 -0.102520 -4.864280 24.152800 13.364600 -0.895056 -5.606099 -0.773246 -2.772217 36.159828 -2.324742 0.929780 18.124201 2.606590 0.575827 
0.000000 53.498543 0.305648 -2.372530 0.628675 2.030900 0.000000 0.000000 0.000000 0.000000 0.000000 0.000000 0.000000 0.000000 -3.000000 7.120450 1.366530 2.908880 14.689500 -0.245973 1.906740 -31.261644 -43.476093 20.772259 -24.009663 5.669032 3.471227 5.274679 -0.225155 0.173462 -11.342000 6.551700 -1.955400 33.503536 30.624826 14.933909 32.065193 -10.499640 -2.588198 -5.797487 13.400004 3.564926 -23.509127 2.722648 -0.846347 47.385628 -0.137656 -4.866529 24.152800 13.364600 -0.895056 -5.573733 -0.821621 -2.774168 36.131302 -2.325800 0.929184 18.124201 2.606590 0.575827 
